<mxfile host="app.diagrams.net" modified="2024-04-19T18:57:29.877Z" agent="Mozilla/5.0 (X11; Linux x86_64) AppleWebKit/537.36 (KHTML, like Gecko) Chrome/124.0.0.0 Safari/537.36" etag="aJT5NLIZMwTh0EJTSwWR" version="24.2.2" type="device">
  <diagram name="Page-1" id="u71j-kSv3sTgelCoOkJ7">
    <mxGraphModel dx="1434" dy="793" grid="1" gridSize="10" guides="1" tooltips="1" connect="1" arrows="1" fold="1" page="1" pageScale="1" pageWidth="850" pageHeight="1100" math="0" shadow="0">
      <root>
        <mxCell id="0" />
        <mxCell id="1" parent="0" />
        <mxCell id="2RNMevGamDcdlO3Snns5-4" value="" style="edgeStyle=orthogonalEdgeStyle;rounded=0;orthogonalLoop=1;jettySize=auto;html=1;" edge="1" parent="1" source="2RNMevGamDcdlO3Snns5-2" target="2RNMevGamDcdlO3Snns5-3">
          <mxGeometry relative="1" as="geometry" />
        </mxCell>
        <mxCell id="2RNMevGamDcdlO3Snns5-2" value="User" style="shape=umlActor;verticalLabelPosition=bottom;verticalAlign=top;html=1;outlineConnect=0;" vertex="1" parent="1">
          <mxGeometry x="100" y="330" width="30" height="60" as="geometry" />
        </mxCell>
        <mxCell id="2RNMevGamDcdlO3Snns5-6" value="" style="edgeStyle=orthogonalEdgeStyle;rounded=0;orthogonalLoop=1;jettySize=auto;html=1;" edge="1" parent="1" source="2RNMevGamDcdlO3Snns5-3" target="2RNMevGamDcdlO3Snns5-5">
          <mxGeometry relative="1" as="geometry" />
        </mxCell>
        <mxCell id="2RNMevGamDcdlO3Snns5-3" value="OS" style="rounded=1;whiteSpace=wrap;html=1;verticalAlign=middle;" vertex="1" parent="1">
          <mxGeometry x="200" y="330" width="60" height="60" as="geometry" />
        </mxCell>
        <mxCell id="2RNMevGamDcdlO3Snns5-8" value="" style="edgeStyle=orthogonalEdgeStyle;rounded=0;orthogonalLoop=1;jettySize=auto;html=1;" edge="1" parent="1" source="2RNMevGamDcdlO3Snns5-5" target="2RNMevGamDcdlO3Snns5-7">
          <mxGeometry relative="1" as="geometry" />
        </mxCell>
        <mxCell id="2RNMevGamDcdlO3Snns5-12" style="edgeStyle=orthogonalEdgeStyle;rounded=0;orthogonalLoop=1;jettySize=auto;html=1;entryX=0;entryY=0.5;entryDx=0;entryDy=0;" edge="1" parent="1" source="2RNMevGamDcdlO3Snns5-5" target="2RNMevGamDcdlO3Snns5-10">
          <mxGeometry relative="1" as="geometry" />
        </mxCell>
        <mxCell id="2RNMevGamDcdlO3Snns5-13" style="edgeStyle=orthogonalEdgeStyle;rounded=0;orthogonalLoop=1;jettySize=auto;html=1;entryX=0;entryY=0.5;entryDx=0;entryDy=0;" edge="1" parent="1" source="2RNMevGamDcdlO3Snns5-5" target="2RNMevGamDcdlO3Snns5-11">
          <mxGeometry relative="1" as="geometry" />
        </mxCell>
        <mxCell id="2RNMevGamDcdlO3Snns5-5" value="Browser Hub" style="whiteSpace=wrap;html=1;rounded=1;" vertex="1" parent="1">
          <mxGeometry x="310" y="330" width="120" height="60" as="geometry" />
        </mxCell>
        <mxCell id="2RNMevGamDcdlO3Snns5-7" value="Client 1 Browser Profile" style="whiteSpace=wrap;html=1;rounded=1;" vertex="1" parent="1">
          <mxGeometry x="510" y="330" width="120" height="60" as="geometry" />
        </mxCell>
        <mxCell id="2RNMevGamDcdlO3Snns5-10" value="Default Browser Profile" style="whiteSpace=wrap;html=1;rounded=1;" vertex="1" parent="1">
          <mxGeometry x="510" y="250" width="120" height="60" as="geometry" />
        </mxCell>
        <mxCell id="2RNMevGamDcdlO3Snns5-11" value="Client 2 Browser Profile" style="whiteSpace=wrap;html=1;rounded=1;" vertex="1" parent="1">
          <mxGeometry x="510" y="410" width="120" height="60" as="geometry" />
        </mxCell>
      </root>
    </mxGraphModel>
  </diagram>
</mxfile>
